<mxfile host="Electron" modified="2023-06-24T09:19:41.820Z" agent="Mozilla/5.0 (Windows NT 10.0; Win64; x64) AppleWebKit/537.36 (KHTML, like Gecko) draw.io/21.2.8 Chrome/112.0.5615.165 Electron/24.2.0 Safari/537.36" etag="VaXsadbiQT5wcYSHKDWq" version="21.2.8" type="device">
  <diagram name="Page-1" id="pPOKh-YmzJtPuGADhw55">
    <mxGraphModel dx="918" dy="604" grid="1" gridSize="10" guides="1" tooltips="1" connect="1" arrows="1" fold="1" page="1" pageScale="1" pageWidth="850" pageHeight="1100" math="0" shadow="0">
      <root>
        <mxCell id="0" />
        <mxCell id="1" parent="0" />
        <mxCell id="N4rjfB7TxiQELWGpWiUa-11" value="" style="rounded=0;whiteSpace=wrap;html=1;rotation=90;fillColor=#b1ddf0;strokeColor=#10739e;" parent="1" vertex="1">
          <mxGeometry x="-20.61" y="235.92" width="835.55" height="399.51" as="geometry" />
        </mxCell>
        <mxCell id="N4rjfB7TxiQELWGpWiUa-1" value="Admin" style="shape=umlActor;verticalLabelPosition=bottom;verticalAlign=top;html=1;outlineConnect=0;" parent="1" vertex="1">
          <mxGeometry x="40" y="280" width="30" height="60" as="geometry" />
        </mxCell>
        <mxCell id="N4rjfB7TxiQELWGpWiUa-2" value="Customer" style="shape=umlActor;verticalLabelPosition=bottom;verticalAlign=top;html=1;outlineConnect=0;" parent="1" vertex="1">
          <mxGeometry x="740" y="270" width="30" height="60" as="geometry" />
        </mxCell>
        <mxCell id="N4rjfB7TxiQELWGpWiUa-5" value="update Food" style="ellipse;whiteSpace=wrap;html=1;" parent="1" vertex="1">
          <mxGeometry x="380" y="175.08" width="100" height="55" as="geometry" />
        </mxCell>
        <mxCell id="N4rjfB7TxiQELWGpWiUa-6" value="Login" style="ellipse;whiteSpace=wrap;html=1;" parent="1" vertex="1">
          <mxGeometry x="280" y="40" width="120" height="60" as="geometry" />
        </mxCell>
        <mxCell id="N4rjfB7TxiQELWGpWiUa-8" value="Manage Menu" style="ellipse;whiteSpace=wrap;html=1;" parent="1" vertex="1">
          <mxGeometry x="220" y="175.07999999999998" width="120" height="60" as="geometry" />
        </mxCell>
        <mxCell id="N4rjfB7TxiQELWGpWiUa-12" value="Add Food" style="ellipse;whiteSpace=wrap;html=1;" parent="1" vertex="1">
          <mxGeometry x="380" y="110" width="100" height="55" as="geometry" />
        </mxCell>
        <mxCell id="N4rjfB7TxiQELWGpWiUa-13" value="Manage Order" style="ellipse;whiteSpace=wrap;html=1;" parent="1" vertex="1">
          <mxGeometry x="219.99999999999997" y="330" width="120" height="60" as="geometry" />
        </mxCell>
        <mxCell id="N4rjfB7TxiQELWGpWiUa-14" value="" style="endArrow=classic;html=1;rounded=0;exitX=1;exitY=0.3333333333333333;exitDx=0;exitDy=0;exitPerimeter=0;entryX=0;entryY=0.5;entryDx=0;entryDy=0;" parent="1" source="N4rjfB7TxiQELWGpWiUa-1" target="N4rjfB7TxiQELWGpWiUa-6" edge="1">
          <mxGeometry width="50" height="50" relative="1" as="geometry">
            <mxPoint x="70" y="290" as="sourcePoint" />
            <mxPoint x="190" y="90" as="targetPoint" />
          </mxGeometry>
        </mxCell>
        <mxCell id="N4rjfB7TxiQELWGpWiUa-17" value="" style="endArrow=classic;html=1;rounded=0;entryX=1;entryY=0.5;entryDx=0;entryDy=0;exitX=0;exitY=0.3333333333333333;exitDx=0;exitDy=0;exitPerimeter=0;" parent="1" source="N4rjfB7TxiQELWGpWiUa-2" target="N4rjfB7TxiQELWGpWiUa-6" edge="1">
          <mxGeometry width="50" height="50" relative="1" as="geometry">
            <mxPoint x="600" y="190" as="sourcePoint" />
            <mxPoint x="650" y="140" as="targetPoint" />
          </mxGeometry>
        </mxCell>
        <mxCell id="N4rjfB7TxiQELWGpWiUa-26" value="Search Food" style="ellipse;whiteSpace=wrap;html=1;" parent="1" vertex="1">
          <mxGeometry x="460" y="460" width="120" height="60" as="geometry" />
        </mxCell>
        <mxCell id="N4rjfB7TxiQELWGpWiUa-30" value="Manage Cart" style="ellipse;whiteSpace=wrap;html=1;" parent="1" vertex="1">
          <mxGeometry x="460" y="560" width="120" height="60" as="geometry" />
        </mxCell>
        <mxCell id="N4rjfB7TxiQELWGpWiUa-33" value="Delete Food" style="ellipse;whiteSpace=wrap;html=1;" parent="1" vertex="1">
          <mxGeometry x="380" y="235.08" width="100" height="55" as="geometry" />
        </mxCell>
        <mxCell id="N4rjfB7TxiQELWGpWiUa-34" value="View Orders" style="ellipse;whiteSpace=wrap;html=1;" parent="1" vertex="1">
          <mxGeometry x="380" y="310" width="100" height="55" as="geometry" />
        </mxCell>
        <mxCell id="N4rjfB7TxiQELWGpWiUa-35" value="Update Status" style="ellipse;whiteSpace=wrap;html=1;" parent="1" vertex="1">
          <mxGeometry x="380" y="380" width="100" height="55" as="geometry" />
        </mxCell>
        <mxCell id="N4rjfB7TxiQELWGpWiUa-36" value="Filter by text" style="ellipse;whiteSpace=wrap;html=1;" parent="1" vertex="1">
          <mxGeometry x="290" y="462.5" width="100" height="55" as="geometry" />
        </mxCell>
        <mxCell id="N4rjfB7TxiQELWGpWiUa-37" value="Filter by Rating" style="ellipse;whiteSpace=wrap;html=1;" parent="1" vertex="1">
          <mxGeometry x="290" y="523" width="100" height="55" as="geometry" />
        </mxCell>
        <mxCell id="N4rjfB7TxiQELWGpWiUa-38" value="Add Cart" style="ellipse;whiteSpace=wrap;html=1;" parent="1" vertex="1">
          <mxGeometry x="290" y="583" width="100" height="55" as="geometry" />
        </mxCell>
        <mxCell id="N4rjfB7TxiQELWGpWiUa-39" value="Update Cart" style="ellipse;whiteSpace=wrap;html=1;" parent="1" vertex="1">
          <mxGeometry x="290" y="650" width="100" height="55" as="geometry" />
        </mxCell>
        <mxCell id="N4rjfB7TxiQELWGpWiUa-40" value="Place Order" style="ellipse;whiteSpace=wrap;html=1;" parent="1" vertex="1">
          <mxGeometry x="450" y="670" width="120" height="60" as="geometry" />
        </mxCell>
        <mxCell id="N4rjfB7TxiQELWGpWiUa-41" value="Rate Food" style="ellipse;whiteSpace=wrap;html=1;" parent="1" vertex="1">
          <mxGeometry x="450" y="750" width="120" height="60" as="geometry" />
        </mxCell>
        <mxCell id="N4rjfB7TxiQELWGpWiUa-43" value="" style="endArrow=classic;html=1;rounded=0;entryX=1;entryY=0;entryDx=0;entryDy=0;exitX=0;exitY=0.3333333333333333;exitDx=0;exitDy=0;exitPerimeter=0;" parent="1" source="N4rjfB7TxiQELWGpWiUa-2" target="N4rjfB7TxiQELWGpWiUa-26" edge="1">
          <mxGeometry width="50" height="50" relative="1" as="geometry">
            <mxPoint x="750" y="300" as="sourcePoint" />
            <mxPoint x="440" y="80" as="targetPoint" />
          </mxGeometry>
        </mxCell>
        <mxCell id="N4rjfB7TxiQELWGpWiUa-44" value="" style="endArrow=classic;html=1;rounded=0;entryX=0.944;entryY=0.167;entryDx=0;entryDy=0;exitX=0;exitY=0.3333333333333333;exitDx=0;exitDy=0;exitPerimeter=0;entryPerimeter=0;" parent="1" source="N4rjfB7TxiQELWGpWiUa-2" target="N4rjfB7TxiQELWGpWiUa-30" edge="1">
          <mxGeometry width="50" height="50" relative="1" as="geometry">
            <mxPoint x="760" y="310" as="sourcePoint" />
            <mxPoint x="573" y="479" as="targetPoint" />
          </mxGeometry>
        </mxCell>
        <mxCell id="N4rjfB7TxiQELWGpWiUa-45" value="" style="endArrow=classic;html=1;rounded=0;entryX=1;entryY=0.5;entryDx=0;entryDy=0;" parent="1" target="N4rjfB7TxiQELWGpWiUa-40" edge="1">
          <mxGeometry width="50" height="50" relative="1" as="geometry">
            <mxPoint x="740" y="290" as="sourcePoint" />
            <mxPoint x="580" y="630" as="targetPoint" />
          </mxGeometry>
        </mxCell>
        <mxCell id="N4rjfB7TxiQELWGpWiUa-46" value="" style="endArrow=classic;html=1;rounded=0;entryX=1;entryY=0.5;entryDx=0;entryDy=0;" parent="1" target="N4rjfB7TxiQELWGpWiUa-41" edge="1">
          <mxGeometry width="50" height="50" relative="1" as="geometry">
            <mxPoint x="740" y="290" as="sourcePoint" />
            <mxPoint x="590" y="640" as="targetPoint" />
          </mxGeometry>
        </mxCell>
        <mxCell id="N4rjfB7TxiQELWGpWiUa-47" value="" style="endArrow=classic;html=1;rounded=0;exitX=1;exitY=0.3333333333333333;exitDx=0;exitDy=0;exitPerimeter=0;entryX=0;entryY=0.5;entryDx=0;entryDy=0;" parent="1" source="N4rjfB7TxiQELWGpWiUa-1" target="N4rjfB7TxiQELWGpWiUa-13" edge="1">
          <mxGeometry width="50" height="50" relative="1" as="geometry">
            <mxPoint x="80" y="310" as="sourcePoint" />
            <mxPoint x="320" y="80" as="targetPoint" />
          </mxGeometry>
        </mxCell>
        <mxCell id="N4rjfB7TxiQELWGpWiUa-48" value="" style="html=1;labelBackgroundColor=#ffffff;startArrow=none;startFill=0;startSize=6;endArrow=classic;endFill=1;endSize=6;jettySize=auto;orthogonalLoop=1;strokeWidth=1;dashed=1;fontSize=14;rounded=0;exitX=0.968;exitY=0.741;exitDx=0;exitDy=0;exitPerimeter=0;entryX=0.016;entryY=0.341;entryDx=0;entryDy=0;entryPerimeter=0;" parent="1" source="N4rjfB7TxiQELWGpWiUa-13" target="N4rjfB7TxiQELWGpWiUa-35" edge="1">
          <mxGeometry width="60" height="60" relative="1" as="geometry">
            <mxPoint x="370" y="460" as="sourcePoint" />
            <mxPoint x="430" y="400" as="targetPoint" />
          </mxGeometry>
        </mxCell>
        <mxCell id="N4rjfB7TxiQELWGpWiUa-49" value="" style="html=1;labelBackgroundColor=#ffffff;startArrow=none;startFill=0;startSize=6;endArrow=classic;endFill=1;endSize=6;jettySize=auto;orthogonalLoop=1;strokeWidth=1;dashed=1;fontSize=14;rounded=0;exitX=1;exitY=0.5;exitDx=0;exitDy=0;entryX=0;entryY=0.5;entryDx=0;entryDy=0;" parent="1" source="N4rjfB7TxiQELWGpWiUa-13" target="N4rjfB7TxiQELWGpWiUa-34" edge="1">
          <mxGeometry width="60" height="60" relative="1" as="geometry">
            <mxPoint x="346" y="384" as="sourcePoint" />
            <mxPoint x="392" y="409" as="targetPoint" />
          </mxGeometry>
        </mxCell>
        <mxCell id="N4rjfB7TxiQELWGpWiUa-50" value="" style="html=1;labelBackgroundColor=#ffffff;startArrow=none;startFill=0;startSize=6;endArrow=classic;endFill=1;endSize=6;jettySize=auto;orthogonalLoop=1;strokeWidth=1;dashed=1;fontSize=14;rounded=0;exitX=1;exitY=0.5;exitDx=0;exitDy=0;entryX=0.032;entryY=0.715;entryDx=0;entryDy=0;entryPerimeter=0;" parent="1" target="N4rjfB7TxiQELWGpWiUa-12" edge="1">
          <mxGeometry width="60" height="60" relative="1" as="geometry">
            <mxPoint x="330" y="187" as="sourcePoint" />
            <mxPoint x="370" y="165" as="targetPoint" />
          </mxGeometry>
        </mxCell>
        <mxCell id="N4rjfB7TxiQELWGpWiUa-52" value="" style="html=1;labelBackgroundColor=#ffffff;startArrow=none;startFill=0;startSize=6;endArrow=classic;endFill=1;endSize=6;jettySize=auto;orthogonalLoop=1;strokeWidth=1;dashed=1;fontSize=14;rounded=0;exitX=1;exitY=0.5;exitDx=0;exitDy=0;entryX=0;entryY=0.5;entryDx=0;entryDy=0;" parent="1" target="N4rjfB7TxiQELWGpWiUa-5" edge="1">
          <mxGeometry width="60" height="60" relative="1" as="geometry">
            <mxPoint x="340" y="197" as="sourcePoint" />
            <mxPoint x="393" y="159" as="targetPoint" />
          </mxGeometry>
        </mxCell>
        <mxCell id="N4rjfB7TxiQELWGpWiUa-53" value="" style="html=1;labelBackgroundColor=#ffffff;startArrow=none;startFill=0;startSize=6;endArrow=classic;endFill=1;endSize=6;jettySize=auto;orthogonalLoop=1;strokeWidth=1;dashed=1;fontSize=14;rounded=0;exitX=0.974;exitY=0.813;exitDx=0;exitDy=0;entryX=0;entryY=0.5;entryDx=0;entryDy=0;exitPerimeter=0;" parent="1" source="N4rjfB7TxiQELWGpWiUa-8" target="N4rjfB7TxiQELWGpWiUa-33" edge="1">
          <mxGeometry width="60" height="60" relative="1" as="geometry">
            <mxPoint x="350" y="207" as="sourcePoint" />
            <mxPoint x="403" y="169" as="targetPoint" />
          </mxGeometry>
        </mxCell>
        <mxCell id="N4rjfB7TxiQELWGpWiUa-54" value="" style="html=1;labelBackgroundColor=#ffffff;startArrow=none;startFill=0;startSize=6;endArrow=classic;endFill=1;endSize=6;jettySize=auto;orthogonalLoop=1;strokeWidth=1;dashed=1;fontSize=14;rounded=0;exitX=0;exitY=0.5;exitDx=0;exitDy=0;entryX=1;entryY=0.5;entryDx=0;entryDy=0;" parent="1" source="N4rjfB7TxiQELWGpWiUa-26" target="N4rjfB7TxiQELWGpWiUa-36" edge="1">
          <mxGeometry width="60" height="60" relative="1" as="geometry">
            <mxPoint x="346" y="384" as="sourcePoint" />
            <mxPoint x="392" y="409" as="targetPoint" />
          </mxGeometry>
        </mxCell>
        <mxCell id="N4rjfB7TxiQELWGpWiUa-55" value="" style="html=1;labelBackgroundColor=#ffffff;startArrow=none;startFill=0;startSize=6;endArrow=classic;endFill=1;endSize=6;jettySize=auto;orthogonalLoop=1;strokeWidth=1;dashed=1;fontSize=14;rounded=0;exitX=0.053;exitY=0.822;exitDx=0;exitDy=0;entryX=1;entryY=0.5;entryDx=0;entryDy=0;exitPerimeter=0;" parent="1" source="N4rjfB7TxiQELWGpWiUa-26" target="N4rjfB7TxiQELWGpWiUa-37" edge="1">
          <mxGeometry width="60" height="60" relative="1" as="geometry">
            <mxPoint x="470" y="500" as="sourcePoint" />
            <mxPoint x="400" y="500" as="targetPoint" />
          </mxGeometry>
        </mxCell>
        <mxCell id="N4rjfB7TxiQELWGpWiUa-56" value="" style="html=1;labelBackgroundColor=#ffffff;startArrow=none;startFill=0;startSize=6;endArrow=classic;endFill=1;endSize=6;jettySize=auto;orthogonalLoop=1;strokeWidth=1;dashed=1;fontSize=14;rounded=0;exitX=0.085;exitY=0.276;exitDx=0;exitDy=0;entryX=1;entryY=0.5;entryDx=0;entryDy=0;exitPerimeter=0;" parent="1" source="N4rjfB7TxiQELWGpWiUa-30" target="N4rjfB7TxiQELWGpWiUa-38" edge="1">
          <mxGeometry width="60" height="60" relative="1" as="geometry">
            <mxPoint x="480" y="510" as="sourcePoint" />
            <mxPoint x="400" y="561" as="targetPoint" />
          </mxGeometry>
        </mxCell>
        <mxCell id="N4rjfB7TxiQELWGpWiUa-57" value="" style="html=1;labelBackgroundColor=#ffffff;startArrow=none;startFill=0;startSize=6;endArrow=classic;endFill=1;endSize=6;jettySize=auto;orthogonalLoop=1;strokeWidth=1;dashed=1;fontSize=14;rounded=0;exitX=0.072;exitY=0.76;exitDx=0;exitDy=0;entryX=1;entryY=0.5;entryDx=0;entryDy=0;exitPerimeter=0;" parent="1" source="N4rjfB7TxiQELWGpWiUa-30" target="N4rjfB7TxiQELWGpWiUa-39" edge="1">
          <mxGeometry width="60" height="60" relative="1" as="geometry">
            <mxPoint x="480" y="617" as="sourcePoint" />
            <mxPoint x="400" y="621" as="targetPoint" />
          </mxGeometry>
        </mxCell>
        <mxCell id="N4rjfB7TxiQELWGpWiUa-58" value="" style="endArrow=classic;html=1;rounded=0;entryX=0.04;entryY=0.682;entryDx=0;entryDy=0;entryPerimeter=0;" parent="1" target="N4rjfB7TxiQELWGpWiUa-8" edge="1">
          <mxGeometry width="50" height="50" relative="1" as="geometry">
            <mxPoint x="70" y="300" as="sourcePoint" />
            <mxPoint x="230" y="370" as="targetPoint" />
          </mxGeometry>
        </mxCell>
        <mxCell id="N4rjfB7TxiQELWGpWiUa-59" value="Signup" style="ellipse;whiteSpace=wrap;html=1;" parent="1" vertex="1">
          <mxGeometry x="460" y="40" width="120" height="60" as="geometry" />
        </mxCell>
        <mxCell id="N4rjfB7TxiQELWGpWiUa-60" value="" style="endArrow=classic;html=1;rounded=0;entryX=0.732;entryY=0.959;entryDx=0;entryDy=0;exitX=0;exitY=0.3333333333333333;exitDx=0;exitDy=0;exitPerimeter=0;entryPerimeter=0;" parent="1" source="N4rjfB7TxiQELWGpWiUa-2" target="N4rjfB7TxiQELWGpWiUa-59" edge="1">
          <mxGeometry width="50" height="50" relative="1" as="geometry">
            <mxPoint x="750" y="300" as="sourcePoint" />
            <mxPoint x="410" y="80" as="targetPoint" />
          </mxGeometry>
        </mxCell>
      </root>
    </mxGraphModel>
  </diagram>
</mxfile>
